<svg xmlns="http://www.w3.org/2000/svg" xmlns:xlink="http://www.w3.org/1999/xlink" width="400" height="400" viewBox="0 0 400 400">
<rect data-name="background" width="100%" height="100%" fill="#ffffff"/><g data-name="watermark" class="watermark-logodesign" stroke="#ffffff" transform="translate(10, 320) scale(1.5) rotate(-45)" style="opacity:0.040000010281801224;"><path fill="#000000" d="M22.92,19.2q3.04,1.68,4.8,4.7t1.76,6.78t-1.76,6.78t-4.8,4.7t-6.68,1.68t-6.7-1.68t-4.84-4.7t-1.78-6.78t1.78-6.78t4.84-4.7t6.7-1.68t6.68,1.68z M11.14,21.74q-2.26,1.3-3.54,3.62t-1.28,5.32t1.28,5.32t3.54,3.6t5.1,1.28t5.08-1.28t3.52-3.6t1.28-5.32t-1.28-5.32t-3.54-3.62t-5.06-1.3q-2.84,0-5.1,1.3z M21.4,24.76l-1.8,2.32q-0.72-0.56-1.4-0.78t-1.48-0.22q-1.44,0-2.3,1.1t-0.86,3.46q0,2.32,0.82,3.44t2.26,1.12q0.96,0,1.74-0.3t1.54-0.9l1.64,2.44q-2.24,2.04-5.2,2.04q-3.2,0-5.08-2.04t-1.88-5.8q0-2.4,0.9-4.16t2.48-2.7t3.54-0.94q2.92,0,5.08,1.92z M41.2,20.32l0,22.96l10.96,0l-0.64,4.72l-16.2,0l0-27.68l5.88,0z M71.92,29.14q2.68,2.98,2.68,8.26q0,3.36-1.22,5.9t-3.52,3.94t-5.42,1.4q-4.76,0-7.46-2.98t-2.7-8.26q0-3.36,1.22-5.9t3.52-3.94t5.46-1.4q4.76,0,7.44,2.98z M61.26,32.1q-1.06,1.7-1.06,5.3t1.06,5.3t3.18,1.7t3.18-1.7t1.06-5.3t-1.04-5.3t-3.16-1.7q-2.16,0-3.22,1.7z M97.88,27.96q-2.08,0.8-6.12,0.8q2,0.88,2.96,2.18t0.96,3.26q0,2.04-1.06,3.66t-3.04,2.54t-4.62,0.92q-1.4,0-2.48-0.28q-0.8,0.52-0.8,1.4q0,0.64,0.5,1.02t1.94,0.38l3.24,0q2.36,0,4.14,0.78t2.76,2.16t0.98,3.14q0,3.24-2.78,5.06t-8.02,1.82q-3.76,0-5.94-0.78t-3.06-2.26t-0.88-3.72l5.08,0q0,1.04,0.4,1.66t1.46,0.92t3.06,0.3q2.76,0,3.86-0.68t1.1-1.92q0-1.12-0.84-1.72t-2.48-0.6l-3.12,0q-3.16,0-4.72-1.18t-1.56-2.98q0-1.12,0.66-2.18t1.82-1.78q-1.96-1.08-2.86-2.54t-0.9-3.5q0-2.32,1.14-4.06t3.2-2.68t4.7-0.94q3.28,0.08,5.4-0.56t4.52-2z M84.14,30.98q-0.94,1.02-0.94,2.78q0,1.8,0.94,2.84t2.58,1.04q1.72,0,2.6-1t0.88-2.96q0-3.72-3.52-3.72q-1.6,0-2.54,1.02z M117.04,29.14q2.68,2.98,2.68,8.26q0,3.36-1.22,5.9t-3.52,3.94t-5.42,1.4q-4.76,0-7.46-2.98t-2.7-8.26q0-3.36,1.22-5.9t3.52-3.94t5.46-1.4q4.76,0,7.44,2.98z M106.38,32.1q-1.06,1.7-1.06,5.3t1.06,5.3t3.18,1.7t3.18-1.7t1.06-5.3t-1.04-5.3t-3.16-1.7q-2.16,0-3.22,1.7z M141.78,23.26q3.9,2.94,3.9,10.78q0,7.68-3.82,10.82t-9.78,3.14l-7.92,0l0-27.68l7.24,0q6.48,0,10.38,2.94z M130.04,24.64l0,19.04l2.4,0q3.4,0,5.26-2.1t1.86-7.54q0-3.76-0.94-5.84t-2.5-2.82t-3.8-0.74l-2.28,0z M167.84,39.12l-13.24,0q0.28,2.88,1.56,4.08t3.48,1.2q1.36,0,2.56-0.44t2.6-1.4l2.36,3.2q-3.56,2.88-8.04,2.88q-5,0-7.68-3t-2.68-8.12q0-3.24,1.14-5.82t3.32-4.06t5.18-1.48q4.52,0,7.04,2.84t2.52,7.92q0,0.4-0.12,2.2z M162.32,35.32q0-5.28-3.8-5.28q-1.76,0-2.74,1.3t-1.18,4.22l7.72,0l0-0.24z M186.8,28.72l-2.16,3.24q-2.68-1.68-5.28-1.68q-1.4,0-2.16,0.52t-0.76,1.4q0,0.64,0.34,1.08t1.28,0.84t2.82,0.96q3.36,0.92,5,2.46t1.64,4.22q0,2.12-1.22,3.68t-3.3,2.38t-4.64,0.82q-2.68,0-4.88-0.82t-3.76-2.26l2.8-3.12q2.68,2.08,5.68,2.08q1.6,0,2.54-0.62t0.94-1.7q0-0.84-0.36-1.32t-1.32-0.9t-3-0.98q-3.2-0.88-4.74-2.5t-1.54-4.02q0-1.8,1.04-3.24t2.94-2.26t4.42-0.82q4.48,0,7.68,2.56z M196.92,26.8l0,21.2l-5.68,0l0-21.2l5.68,0z M196.54,16.82q0.98,0.94,0.98,2.38t-0.98,2.38t-2.5,0.94t-2.48-0.94t-0.96-2.38t0.96-2.38t2.48-0.94t2.5,0.94z M221.48,27.96q-2.08,0.8-6.12,0.8q2,0.88,2.96,2.18t0.96,3.26q0,2.04-1.06,3.66t-3.04,2.54t-4.62,0.92q-1.4,0-2.48-0.28q-0.8,0.52-0.8,1.4q0,0.64,0.5,1.02t1.94,0.38l3.24,0q2.36,0,4.14,0.78t2.76,2.16t0.98,3.14q0,3.24-2.78,5.06t-8.02,1.82q-3.76,0-5.94-0.78t-3.06-2.26t-0.88-3.72l5.08,0q0,1.04,0.4,1.66t1.46,0.92t3.06,0.3q2.76,0,3.86-0.68t1.1-1.92q0-1.12-0.84-1.72t-2.48-0.6l-3.12,0q-3.16,0-4.72-1.18t-1.56-2.98q0-1.12,0.66-2.18t1.82-1.78q-1.96-1.08-2.86-2.54t-0.9-3.5q0-2.32,1.14-4.06t3.2-2.68t4.7-0.94q3.28,0.08,5.4-0.56t4.52-2z M207.74,30.98q-0.94,1.02-0.94,2.78q0,1.8,0.94,2.84t2.58,1.04q1.72,0,2.6-1t0.88-2.96q0-3.72-3.52-3.72q-1.6,0-2.54,1.02z M240.48,27.86q1.56,1.7,1.56,4.7l0,15.44l-5.68,0l0-14.48q0-1.72-0.58-2.42t-1.74-0.7q-1.2,0-2.18,0.74t-1.9,2.22l0,14.64l-5.68,0l0-21.2l4.92,0l0.44,2.68q1.32-1.64,2.9-2.48t3.58-0.84q2.8,0,4.36,1.7z M251.84,42.8q1,1,1,2.4t-1,2.42t-2.44,1.02q-1.4,0-2.4-1.02t-1-2.42t1-2.4t2.4-1q1.44,0,2.44,1z M271.8,48l-1.56-6.2l-8.68,0l-1.56,6.2l-6.12,0l8.52-27.68l7.16,0l8.48,27.68l-6.24,0z M262.68,37.44l6.44,0l-3.24-12.76z M286.48,20.32l0,27.68l-5.88,0l0-27.68l5.88,0z"/></g><g data-name="monogram" fill="#4e708d" data="id:367" transform="translate(142.25250350550976,153.01378515193943) scale(2.083287078148678)"><path d="M21.09375,34.6875l-2.96875,13.359375l-9.90234375,0l3.046875-13.359375l-1.77734375,0l1.97265625-8.5546875l-7.8125,0l1.71875-7.40234375l25.3515625,0l-1.66015625,7.40234375l-7.79296875,0l-1.9140625,8.5546875l1.73828125,0z M51.58203125,38.6328125c-1.07421875,4.4140625-4.78515625,7.6171875-9.1015625,8.84765625c-1.3671875,0.3515625-3.06640625,0.48828125-5.13671875,0.48828125l-12.03125,0l2.9296875-12.734375l-2.2265625,0l3.80859375-16.40625c3.37890625,0,13.6328125-0.64453125,17.08984375,0.625c2.9296875,1.15234375,4.31640625,3.57421875,3.59375,6.73828125c-0.546875,2.36328125-1.97265625,4.19921875-3.88671875,5.625c1.6015625,0.80078125,2.5390625,2.01171875,2.8515625,3.41796875l2.1484375,0c0.25390625,1.09375,0.1953125,2.1484375-0.0390625,3.3984375z M41.58203125,38.515625c0.625-2.71484375-2.05078125-2.1875-3.80859375-2.1875l-1.0546875,4.51171875c2.16796875,0,4.296875,0.25390625,4.86328125-2.32421875z M40.41015625,27.96875c0.44921875-1.81640625-1.0546875-2.03125-2.48046875-2.03125l-0.7421875,3.53515625c1.09375,0.09765625,2.9296875-0.05859375,3.22265625-1.50390625z"/></g><g data-name="business_name" fill="#4e708d" data="id:372" transform="translate(61.76326500641699,139.8841121439398) scale(0.6040231586878859)"><path d="M13.44,40l-4.8,0l0-20l-7.6,0l0-4.48l20,0l0,4.48l-7.6,0l0,20z M33.52,33q-1.32,0-2.7-0.32t-2.54-0.88q0.36,1.72,1.74,2.76t4.34,1.04q0.64,0,1.48-0.06t1.72-0.14t1.68-0.22t1.36-0.34l0,4.52q-0.72,0.2-1.58,0.36t-1.74,0.28t-1.7,0.18t-1.54,0.06q-2.68,0-4.7-0.8t-3.36-2.18t-2-3.24t-0.66-3.94q0-2.16,0.68-4.02t1.98-3.26t3.2-2.2t4.34-0.8q1.84,0,3.4,0.48t2.7,1.36t1.76,2.08t0.62,2.68t-0.62,2.7t-1.74,2.08t-2.68,1.34t-3.44,0.48z M33.56,28.36q1.68,0,2.64-0.5t0.96-1.46t-0.94-1.46t-2.54-0.5q-2.12,0-3.34,0.82t-1.78,2.18q1.08,0.44,2.42,0.68t2.58,0.24z M50.56,40l-4.8,0l0-28l4.8,0l0,28z M60.16,40l-4.8,0l0-28l4.8,0l0,28z M68.6,30q0,1.2,0.3,2.24t0.96,1.82t1.68,1.22t2.46,0.44t2.46-0.44t1.68-1.22t0.96-1.82t0.3-2.24t-0.3-2.24t-0.96-1.82t-1.68-1.22t-2.46-0.44t-2.46,0.44t-1.68,1.22t-0.96,1.82t-0.3,2.24z M63.8,30q0-2.12,0.68-3.98t2-3.24t3.22-2.18t4.3-0.8t4.3,0.8t3.22,2.18t2,3.24t0.68,3.98t-0.68,3.98t-2,3.24t-3.22,2.18t-4.3,0.8t-4.3-0.8t-3.22-2.18t-2-3.24t-0.68-3.98z M92.64,40l-4.8,0l0-9.96q0-2.12,0.68-4t2-3.26t3.24-2.18t4.4-0.8q0.44,0,0.88,0.06t0.88,0.14l0,4.64q-0.4-0.08-0.76-0.14t-0.76-0.06q-1.64,0-2.74,0.44t-1.78,1.18t-0.96,1.76t-0.28,2.18l0,10z M103.4,40l0-24.48l11.6,0q1.6,0,2.98,0.58t2.42,1.56t1.64,2.28t0.6,2.7q0,1.48-0.64,2.72t-1.8,2.12q1.48,0.88,2.36,2.28t0.88,3.12q0,1.44-0.6,2.72t-1.64,2.26t-2.42,1.56t-2.98,0.58l-12.4,0z M115.8,35.52q1.2,0,2.02-0.8t0.82-1.96t-0.82-1.96t-2.02-0.8l-7.6,0l0,5.52l7.6,0z M115,25.52q1.2,0,2.02-0.8t0.82-1.96t-0.82-1.96t-2.02-0.8l-6.8,0l0,5.52l6.8,0z M132.16,40l-4.8,0l0-28l4.8,0l0,28z M146,33q-1.32,0-2.7-0.32t-2.54-0.88q0.36,1.72,1.74,2.76t4.34,1.04q0.64,0,1.48-0.06t1.72-0.14t1.68-0.22t1.36-0.34l0,4.52q-0.72,0.2-1.58,0.36t-1.74,0.28t-1.7,0.18t-1.54,0.06q-2.68,0-4.7-0.8t-3.36-2.18t-2-3.24t-0.66-3.94q0-2.16,0.68-4.02t1.98-3.26t3.2-2.2t4.34-0.8q1.84,0,3.4,0.48t2.7,1.36t1.76,2.08t0.62,2.68t-0.62,2.7t-1.74,2.08t-2.68,1.34t-3.44,0.48z M146.04,28.36q1.68,0,2.64-0.5t0.96-1.46t-0.94-1.46t-2.54-0.5q-2.12,0-3.34,0.82t-1.78,2.18q1.08,0.44,2.42,0.68t2.58,0.24z M167.72,35.72q2.56,0,3.78-1.6t1.22-4.12l0-10l4.8,0l0,10q0,2.12-0.66,3.98t-1.92,3.24t-3.08,2.18t-4.14,0.8t-4.14-0.8t-3.08-2.18t-1.92-3.24t-0.66-3.98l0-10l4.8,0l0,10q0,2.52,1.22,4.12t3.78,1.6z M190.68,27.92q1.48,0.28,2.86,0.62t2.46,0.96t1.72,1.64t0.64,2.66q0,1.68-0.72,2.9t-1.98,2t-2.94,1.16t-3.64,0.38q-0.8,0-1.78-0.06t-2.02-0.18t-2.04-0.28t-1.84-0.36l0-4.52q0.68,0.2,1.66,0.34t2.06,0.24t2.18,0.16t2.02,0.06q2.4,0,3.42-0.38t1.02-1.22q0-0.28-0.18-0.5t-0.72-0.44t-1.54-0.44t-2.64-0.54q-0.76-0.16-1.96-0.4t-2.34-0.88t-1.98-1.76t-0.84-3q0-1.6,0.64-2.78t1.78-1.96t2.7-1.16t3.4-0.38q0.72,0,1.66,0.06t1.9,0.18t1.92,0.28t1.76,0.36l0,4.52q-0.56-0.16-1.48-0.3t-1.94-0.26t-2.08-0.18t-1.9-0.06q-2.12,0-2.94,0.4t-0.82,1.12q0,0.4,0.22,0.66t0.74,0.48t1.4,0.42t2.16,0.44z  M221.44,34.68l7.2-19.16l5.2,0l-10,24.48l-4.8,0l-10-24.48l5.2,0z M241.64,40l-4.8,0l0-20l4.8,0l0,20z M236.16,14.64q0-1.28,0.82-2.16t2.26-0.88t2.24,0.9t0.8,2.14q0,1.28-0.8,2.18t-2.24,0.9t-2.26-0.9t-0.82-2.18z M256.24,24.28q-2.56,0-3.78,1.6t-1.22,4.12l0,10l-4.8,0l0-10q0-2.12,0.66-3.98t1.92-3.24t3.08-2.18t4.14-0.8t4.14,0.8t3.08,2.18t1.92,3.24t0.66,3.98l0,10l-4.8,0l0-10q0-2.52-1.22-4.12t-3.78-1.6z M280.36,35.72q0.6,0,1-0.06t0.8-0.14l0,4.48q-0.52,0.08-0.86,0.14t-1.1,0.06q-2.32,0-4.16-0.8t-3.14-2.18t-2-3.24t-0.7-3.98l0-14.8l4.8,0l0,5.48l6.2,0l0,4.48l-6.2,0l0,4.84q0,2.52,1.3,4.12t4.06,1.6z M284.88,29.96q0-2.08,0.68-3.94t2-3.24t3.24-2.18t4.36-0.8q2.28,0,4.12,0.72t3.14,2.04t2.04,3.22t0.82,4.22q0.04,0.76,0.04,1.86t0.12,2.42t0.44,2.78t1,2.94l-4.8,0q-0.68-1.48-1-3.08q-1.04,1.52-2.64,2.4t-3.84,0.88q-2.12,0-3.92-0.8t-3.08-2.18t-2-3.24t-0.72-4.02z M295.16,24.28q-1.48,0-2.52,0.44t-1.7,1.22t-0.96,1.82t-0.3,2.24t0.3,2.24t0.96,1.82t1.7,1.22t2.52,0.44q2.48,0,3.9-1.38t1.42-4.34q-0.12-2.64-1.36-4.18t-3.96-1.54z M308.92,46q0-2.96,1.8-4.66t5.2-2.14l0-3.28q-1.6-0.36-2.82-1.12t-2.06-1.8t-1.28-2.32t-0.44-2.68q0-1.68,0.64-3.18t1.84-2.62t2.94-1.76t3.98-0.64q1.6,0,2.96,0.34t2.44,0.94q0.88-0.48,1.7-0.7t1.54-0.3t1.32-0.08l1,0l0.72,0l0,4l-0.72,0q-0.64,0-1.24,0.06t-1.2,0.3q0.88,1.68,0.88,3.64q0,1.48-0.5,2.82t-1.44,2.42t-2.32,1.82t-3.14,1.02l0,3q3.76,0.36,5.78,2.08t2.02,4.84q0,3.52-2.56,5.26t-7.24,1.74t-7.24-1.74t-2.56-5.26z M314.12,28q0,1.52,1.08,2.62t3.52,1.1t3.52-1.1t1.08-2.62t-1.08-2.62t-3.52-1.1t-3.52,1.1t-1.08,2.62z M313.72,46q0,1.32,1.18,1.92t3.82,0.6t3.82-0.6t1.18-1.92t-1.18-1.92t-3.82-0.6t-3.82,0.6t-1.18,1.92z M342.2,33q-1.32,0-2.7-0.32t-2.54-0.88q0.36,1.72,1.74,2.76t4.34,1.04q0.64,0,1.48-0.06t1.72-0.14t1.68-0.22t1.36-0.34l0,4.52q-0.72,0.2-1.58,0.36t-1.74,0.28t-1.7,0.18t-1.54,0.06q-2.68,0-4.7-0.8t-3.36-2.18t-2-3.24t-0.66-3.94q0-2.16,0.68-4.02t1.98-3.26t3.2-2.2t4.34-0.8q1.84,0,3.4,0.48t2.7,1.36t1.76,2.08t0.62,2.68t-0.62,2.7t-1.74,2.08t-2.68,1.34t-3.44,0.48z M342.24,28.36q1.68,0,2.64-0.5t0.96-1.46t-0.94-1.46t-2.54-0.5q-2.12,0-3.34,0.82t-1.78,2.18q1.08,0.44,2.42,0.68t2.58,0.24z  M374.28,40l-4.8,0l0-20l-7.6,0l0-4.48l20,0l0,4.48l-7.6,0l0,20z M394.36,33q-1.32,0-2.7-0.32t-2.54-0.88q0.36,1.72,1.74,2.76t4.34,1.04q0.64,0,1.48-0.06t1.72-0.14t1.68-0.22t1.36-0.34l0,4.52q-0.72,0.2-1.58,0.36t-1.74,0.28t-1.7,0.18t-1.54,0.06q-2.68,0-4.7-0.8t-3.36-2.18t-2-3.24t-0.66-3.94q0-2.16,0.68-4.02t1.98-3.26t3.2-2.2t4.34-0.8q1.84,0,3.4,0.48t2.7,1.36t1.76,2.08t0.62,2.68t-0.62,2.7t-1.74,2.08t-2.68,1.34t-3.44,0.48z M394.4,28.36q1.68,0,2.64-0.5t0.96-1.46t-0.94-1.46t-2.54-0.5q-2.12,0-3.34,0.82t-1.78,2.18q1.08,0.44,2.42,0.68t2.58,0.24z M410.24,30q0,1.2,0.28,2.22t0.96,1.78t1.78,1.2t2.74,0.44t3.26-0.3t2.66-0.86l0,4.92q-1.28,0.44-2.9,0.66t-3.26,0.22q-2.48,0-4.4-0.8t-3.24-2.18t-2-3.26t-0.68-4t0.68-4t2-3.26t3.24-2.18t4.4-0.8q1.64,0,3.26,0.22t2.9,0.66l0,4.92q-1.04-0.56-2.66-0.86t-3.26-0.3t-2.74,0.44t-1.78,1.18t-0.96,1.76t-0.28,2.18z M430.88,22.28q1-1.16,2.42-1.82t3.3-0.66q2.04,0,3.72,0.8t2.88,2.18t1.84,3.24t0.64,3.98l0,10l-4.8,0l0-10q0-2.56-1.12-4.14t-3.68-1.58q-2.52,0-3.82,1.52t-1.38,3.96l0,10.24l-4.8,0l0-28l4.8,0l0,10.28z M455.24,31.8l-3.2,0l-1.28-16.28l5.76,0z M450.56,37.16q0-1.28,0.82-2.18t2.26-0.9t2.24,0.9t0.8,2.18q0,1.24-0.8,2.14t-2.24,0.9t-2.26-0.88t-0.82-2.16z"/></g></svg>